<svg width="1440" height="72" viewBox="0 0 1440 72" fill="none" xmlns="http://www.w3.org/2000/svg">
<path d="M170.755 29.364V42H167.677V34.098L164.941 42H162.277L159.523 34.08V42H156.445V29.364H160.207L163.645 38.166L167.011 29.364H170.755ZM175.202 31.956L177.614 38.112L179.864 31.956H183.266L177.002 46.788H173.618L175.976 41.622L171.764 31.956H175.202ZM190.97 39.642H195.074V42H187.892V29.274H190.97V39.642ZM201.186 31.83C202.182 31.83 203.07 32.04 203.85 32.46C204.642 32.868 205.26 33.462 205.704 34.242C206.16 35.022 206.388 35.934 206.388 36.978C206.388 38.022 206.16 38.934 205.704 39.714C205.26 40.494 204.642 41.094 203.85 41.514C203.07 41.922 202.182 42.126 201.186 42.126C200.19 42.126 199.296 41.922 198.504 41.514C197.712 41.094 197.088 40.494 196.632 39.714C196.188 38.934 195.966 38.022 195.966 36.978C195.966 35.934 196.188 35.022 196.632 34.242C197.088 33.462 197.712 32.868 198.504 32.46C199.296 32.04 200.19 31.83 201.186 31.83ZM201.186 34.494C200.598 34.494 200.1 34.71 199.692 35.142C199.296 35.562 199.098 36.174 199.098 36.978C199.098 37.782 199.296 38.394 199.692 38.814C200.1 39.234 200.598 39.444 201.186 39.444C201.774 39.444 202.266 39.234 202.662 38.814C203.058 38.394 203.256 37.782 203.256 36.978C203.256 36.174 203.058 35.562 202.662 35.142C202.266 34.71 201.774 34.494 201.186 34.494ZM211.8 31.83C212.568 31.83 213.228 32.004 213.78 32.352C214.332 32.7 214.74 33.174 215.004 33.774V31.956H218.064V41.946C218.064 42.882 217.884 43.722 217.524 44.466C217.164 45.222 216.612 45.822 215.868 46.266C215.124 46.71 214.2 46.932 213.096 46.932C211.584 46.932 210.372 46.572 209.46 45.852C208.56 45.144 208.02 44.178 207.84 42.954H210.882C210.978 43.362 211.194 43.68 211.53 43.908C211.878 44.136 212.328 44.25 212.88 44.25C213.516 44.25 214.026 44.064 214.41 43.692C214.806 43.332 215.004 42.75 215.004 41.946V40.182C214.74 40.782 214.332 41.256 213.78 41.604C213.228 41.952 212.568 42.126 211.8 42.126C210.972 42.126 210.228 41.922 209.568 41.514C208.92 41.094 208.404 40.494 208.02 39.714C207.648 38.934 207.462 38.022 207.462 36.978C207.462 35.922 207.648 35.01 208.02 34.242C208.404 33.462 208.92 32.868 209.568 32.46C210.228 32.04 210.972 31.83 211.8 31.83ZM212.79 34.53C212.13 34.53 211.596 34.746 211.188 35.178C210.792 35.61 210.594 36.21 210.594 36.978C210.594 37.746 210.792 38.346 211.188 38.778C211.596 39.21 212.13 39.426 212.79 39.426C213.438 39.426 213.966 39.204 214.374 38.76C214.794 38.316 215.004 37.722 215.004 36.978C215.004 36.222 214.794 35.628 214.374 35.196C213.966 34.752 213.438 34.53 212.79 34.53ZM224.881 31.83C225.877 31.83 226.765 32.04 227.545 32.46C228.337 32.868 228.955 33.462 229.399 34.242C229.855 35.022 230.083 35.934 230.083 36.978C230.083 38.022 229.855 38.934 229.399 39.714C228.955 40.494 228.337 41.094 227.545 41.514C226.765 41.922 225.877 42.126 224.881 42.126C223.885 42.126 222.991 41.922 222.199 41.514C221.407 41.094 220.783 40.494 220.327 39.714C219.883 38.934 219.661 38.022 219.661 36.978C219.661 35.934 219.883 35.022 220.327 34.242C220.783 33.462 221.407 32.868 222.199 32.46C222.991 32.04 223.885 31.83 224.881 31.83ZM224.881 34.494C224.293 34.494 223.795 34.71 223.387 35.142C222.991 35.562 222.793 36.174 222.793 36.978C222.793 37.782 222.991 38.394 223.387 38.814C223.795 39.234 224.293 39.444 224.881 39.444C225.469 39.444 225.961 39.234 226.357 38.814C226.753 38.394 226.951 37.782 226.951 36.978C226.951 36.174 226.753 35.562 226.357 35.142C225.961 34.71 225.469 34.494 224.881 34.494Z" fill="#6070FF"/>
<g clip-path="url(#clip0_34_1133)">
<path d="M1054.15 36.89V41H1052.44V30.41H1056.04C1057.26 30.41 1058.18 30.7 1058.79 31.28C1059.41 31.86 1059.72 32.655 1059.72 33.665C1059.72 34.665 1059.4 35.455 1058.77 36.035C1058.14 36.605 1057.23 36.89 1056.04 36.89H1054.15ZM1055.86 35.495C1057.27 35.495 1057.98 34.885 1057.98 33.665C1057.98 33.065 1057.81 32.61 1057.47 32.3C1057.14 31.98 1056.6 31.82 1055.86 31.82H1054.15V35.495H1055.86ZM1065 32.63C1065.8 32.63 1066.52 32.8 1067.16 33.14C1067.8 33.48 1068.3 33.97 1068.66 34.61C1069.02 35.25 1069.2 36 1069.2 36.86C1069.2 37.73 1069.02 38.485 1068.66 39.125C1068.3 39.765 1067.8 40.255 1067.16 40.595C1066.52 40.935 1065.8 41.105 1065 41.105C1064.2 41.105 1063.48 40.935 1062.84 40.595C1062.21 40.255 1061.71 39.765 1061.34 39.125C1060.98 38.475 1060.8 37.72 1060.8 36.86C1060.8 36 1060.98 35.25 1061.34 34.61C1061.71 33.97 1062.21 33.48 1062.84 33.14C1063.48 32.8 1064.2 32.63 1065 32.63ZM1065 34.115C1064.56 34.115 1064.15 34.215 1063.78 34.415C1063.41 34.615 1063.11 34.925 1062.88 35.345C1062.66 35.755 1062.55 36.26 1062.55 36.86C1062.55 37.47 1062.66 37.98 1062.88 38.39C1063.11 38.8 1063.41 39.105 1063.78 39.305C1064.15 39.505 1064.56 39.605 1065 39.605C1065.44 39.605 1065.84 39.505 1066.21 39.305C1066.58 39.105 1066.88 38.8 1067.1 38.39C1067.33 37.98 1067.44 37.47 1067.44 36.86C1067.44 36.26 1067.33 35.755 1067.1 35.345C1066.88 34.925 1066.58 34.615 1066.21 34.415C1065.84 34.215 1065.44 34.115 1065 34.115ZM1072.55 34.355C1072.83 33.815 1073.23 33.39 1073.75 33.08C1074.27 32.76 1074.87 32.6 1075.55 32.6V34.46H1075.04C1074.29 34.46 1073.69 34.645 1073.23 35.015C1072.78 35.375 1072.55 35.975 1072.55 36.815V41H1070.84V32.735H1072.55V34.355ZM1080.99 39.515V41H1079.94C1079.06 41 1078.39 40.79 1077.93 40.37C1077.48 39.94 1077.25 39.23 1077.25 38.24V34.19H1076.07V32.735H1077.25V30.68H1078.98V32.735H1080.97V34.19H1078.98V38.27C1078.98 38.74 1079.06 39.065 1079.23 39.245C1079.41 39.425 1079.72 39.515 1080.16 39.515H1080.99ZM1086.37 32.63C1087.17 32.63 1087.89 32.8 1088.53 33.14C1089.17 33.48 1089.67 33.97 1090.03 34.61C1090.39 35.25 1090.57 36 1090.57 36.86C1090.57 37.73 1090.39 38.485 1090.03 39.125C1089.67 39.765 1089.17 40.255 1088.53 40.595C1087.89 40.935 1087.17 41.105 1086.37 41.105C1085.57 41.105 1084.85 40.935 1084.21 40.595C1083.58 40.255 1083.08 39.765 1082.71 39.125C1082.35 38.475 1082.17 37.72 1082.17 36.86C1082.17 36 1082.35 35.25 1082.71 34.61C1083.08 33.97 1083.58 33.48 1084.21 33.14C1084.85 32.8 1085.57 32.63 1086.37 32.63ZM1086.37 34.115C1085.93 34.115 1085.53 34.215 1085.16 34.415C1084.79 34.615 1084.49 34.925 1084.26 35.345C1084.04 35.755 1083.93 36.26 1083.93 36.86C1083.93 37.47 1084.04 37.98 1084.26 38.39C1084.49 38.8 1084.79 39.105 1085.16 39.305C1085.53 39.505 1085.93 39.605 1086.37 39.605C1086.81 39.605 1087.22 39.505 1087.59 39.305C1087.96 39.105 1088.25 38.8 1088.47 38.39C1088.7 37.98 1088.82 37.47 1088.82 36.86C1088.82 36.26 1088.7 35.755 1088.47 35.345C1088.25 34.925 1087.96 34.615 1087.59 34.415C1087.22 34.215 1086.81 34.115 1086.37 34.115ZM1096.07 31.025C1095.4 30.995 1094.93 31.105 1094.66 31.355C1094.39 31.595 1094.25 32.01 1094.25 32.6V32.735H1096.07V34.205H1094.25V41H1092.53V34.205H1091.4V32.735H1092.53V32.465C1092.53 31.455 1092.82 30.7 1093.41 30.2C1094 29.69 1094.89 29.465 1096.07 29.525V31.025ZM1099.15 29.9V41H1097.44V29.9H1099.15ZM1100.98 30.335C1100.98 30.045 1101.08 29.805 1101.28 29.615C1101.48 29.425 1101.75 29.33 1102.08 29.33C1102.41 29.33 1102.67 29.425 1102.87 29.615C1103.08 29.805 1103.19 30.045 1103.19 30.335C1103.19 30.625 1103.08 30.86 1102.87 31.04C1102.67 31.22 1102.41 31.31 1102.08 31.31C1101.75 31.31 1101.48 31.22 1101.28 31.04C1101.08 30.86 1100.98 30.625 1100.98 30.335ZM1102.93 32.735V41H1101.22V32.735H1102.93ZM1108.78 32.63C1109.58 32.63 1110.3 32.8 1110.94 33.14C1111.58 33.48 1112.08 33.97 1112.44 34.61C1112.8 35.25 1112.98 36 1112.98 36.86C1112.98 37.73 1112.8 38.485 1112.44 39.125C1112.08 39.765 1111.58 40.255 1110.94 40.595C1110.3 40.935 1109.58 41.105 1108.78 41.105C1107.98 41.105 1107.26 40.935 1106.62 40.595C1105.99 40.255 1105.49 39.765 1105.12 39.125C1104.76 38.475 1104.58 37.72 1104.58 36.86C1104.58 36 1104.76 35.25 1105.12 34.61C1105.49 33.97 1105.99 33.48 1106.62 33.14C1107.26 32.8 1107.98 32.63 1108.78 32.63ZM1108.78 34.115C1108.34 34.115 1107.94 34.215 1107.57 34.415C1107.2 34.615 1106.9 34.925 1106.67 35.345C1106.45 35.755 1106.34 36.26 1106.34 36.86C1106.34 37.47 1106.45 37.98 1106.67 38.39C1106.9 38.8 1107.2 39.105 1107.57 39.305C1107.94 39.505 1108.34 39.605 1108.78 39.605C1109.22 39.605 1109.63 39.505 1110 39.305C1110.37 39.105 1110.66 38.8 1110.88 38.39C1111.11 37.98 1111.23 37.47 1111.23 36.86C1111.23 36.26 1111.11 35.755 1110.88 35.345C1110.66 34.925 1110.37 34.615 1110 34.415C1109.63 34.215 1109.22 34.115 1108.78 34.115Z" fill="#344563"/>
<path d="M1153.65 38.705H1149.18L1148.37 41H1146.54L1150.44 30.575H1152.41L1156.29 41H1154.46L1153.65 38.705ZM1153.17 37.385L1151.42 32.435L1149.66 37.385H1153.17ZM1162.3 32.63C1163.02 32.63 1163.66 32.8 1164.22 33.14C1164.79 33.48 1165.24 33.97 1165.56 34.61C1165.88 35.25 1166.04 36 1166.04 36.86C1166.04 37.73 1165.88 38.485 1165.56 39.125C1165.24 39.765 1164.79 40.255 1164.22 40.595C1163.66 40.935 1163.02 41.105 1162.3 41.105C1161.55 41.105 1160.91 40.92 1160.38 40.55C1159.85 40.18 1159.48 39.69 1159.27 39.08V41H1157.56V29.9H1159.27V34.655C1159.48 34.045 1159.85 33.555 1160.38 33.185C1160.91 32.815 1161.55 32.63 1162.3 32.63ZM1161.78 34.13C1161.3 34.13 1160.87 34.245 1160.49 34.475C1160.11 34.695 1159.81 35.015 1159.59 35.435C1159.37 35.845 1159.26 36.32 1159.26 36.86C1159.26 37.41 1159.37 37.89 1159.59 38.3C1159.81 38.71 1160.11 39.03 1160.49 39.26C1160.87 39.48 1161.3 39.59 1161.78 39.59C1162.54 39.59 1163.15 39.35 1163.61 38.87C1164.07 38.38 1164.3 37.71 1164.3 36.86C1164.3 36.02 1164.07 35.355 1163.61 34.865C1163.15 34.375 1162.54 34.13 1161.78 34.13ZM1171.46 32.63C1172.26 32.63 1172.98 32.8 1173.62 33.14C1174.26 33.48 1174.76 33.97 1175.12 34.61C1175.48 35.25 1175.66 36 1175.66 36.86C1175.66 37.73 1175.48 38.485 1175.12 39.125C1174.76 39.765 1174.26 40.255 1173.62 40.595C1172.98 40.935 1172.26 41.105 1171.46 41.105C1170.66 41.105 1169.94 40.935 1169.3 40.595C1168.67 40.255 1168.17 39.765 1167.8 39.125C1167.44 38.475 1167.26 37.72 1167.26 36.86C1167.26 36 1167.44 35.25 1167.8 34.61C1168.17 33.97 1168.67 33.48 1169.3 33.14C1169.94 32.8 1170.66 32.63 1171.46 32.63ZM1171.46 34.115C1171.02 34.115 1170.62 34.215 1170.25 34.415C1169.88 34.615 1169.58 34.925 1169.35 35.345C1169.13 35.755 1169.02 36.26 1169.02 36.86C1169.02 37.47 1169.13 37.98 1169.35 38.39C1169.58 38.8 1169.88 39.105 1170.25 39.305C1170.62 39.505 1171.02 39.605 1171.46 39.605C1171.9 39.605 1172.31 39.505 1172.68 39.305C1173.05 39.105 1173.34 38.8 1173.56 38.39C1173.79 37.98 1173.91 37.47 1173.91 36.86C1173.91 36.26 1173.79 35.755 1173.56 35.345C1173.34 34.925 1173.05 34.615 1172.68 34.415C1172.31 34.215 1171.9 34.115 1171.46 34.115ZM1184.93 32.735V41H1183.2V39.2C1182.99 39.81 1182.63 40.285 1182.11 40.625C1181.59 40.955 1180.98 41.12 1180.29 41.12C1179.33 41.12 1178.56 40.81 1177.98 40.19C1177.4 39.57 1177.11 38.685 1177.11 37.535V32.735H1178.82V37.355C1178.82 38.105 1179.01 38.685 1179.39 39.095C1179.77 39.495 1180.29 39.695 1180.95 39.695C1181.63 39.695 1182.18 39.475 1182.59 39.035C1183 38.595 1183.2 37.955 1183.2 37.115V32.735H1184.93ZM1191.13 39.515V41H1190.08C1189.2 41 1188.53 40.79 1188.07 40.37C1187.62 39.94 1187.4 39.23 1187.4 38.24V34.19H1186.21V32.735H1187.4V30.68H1189.12V32.735H1191.12V34.19H1189.12V38.27C1189.12 38.74 1189.21 39.065 1189.38 39.245C1189.56 39.425 1189.87 39.515 1190.31 39.515H1191.13Z" fill="#344563"/>
<path d="M1229.88 30.305C1231.18 30.305 1232.26 30.635 1233.12 31.295C1233.98 31.955 1234.56 32.85 1234.86 33.98H1233.05C1232.8 33.34 1232.4 32.835 1231.85 32.465C1231.31 32.085 1230.64 31.895 1229.85 31.895C1229.22 31.895 1228.66 32.05 1228.16 32.36C1227.67 32.67 1227.28 33.115 1226.99 33.695C1226.71 34.265 1226.57 34.935 1226.57 35.705C1226.57 36.465 1226.71 37.135 1226.99 37.715C1227.28 38.285 1227.67 38.725 1228.16 39.035C1228.66 39.345 1229.22 39.5 1229.85 39.5C1230.64 39.5 1231.31 39.315 1231.85 38.945C1232.4 38.565 1232.8 38.06 1233.05 37.43H1234.86C1234.56 38.56 1233.98 39.455 1233.12 40.115C1232.26 40.765 1231.18 41.09 1229.88 41.09C1228.88 41.09 1228 40.865 1227.23 40.415C1226.46 39.955 1225.86 39.32 1225.44 38.51C1225.02 37.69 1224.81 36.755 1224.81 35.705C1224.81 34.655 1225.02 33.725 1225.44 32.915C1225.86 32.095 1226.46 31.455 1227.23 30.995C1228 30.535 1228.88 30.305 1229.88 30.305ZM1240.35 32.63C1241.15 32.63 1241.87 32.8 1242.51 33.14C1243.15 33.48 1243.65 33.97 1244.01 34.61C1244.37 35.25 1244.55 36 1244.55 36.86C1244.55 37.73 1244.37 38.485 1244.01 39.125C1243.65 39.765 1243.15 40.255 1242.51 40.595C1241.87 40.935 1241.15 41.105 1240.35 41.105C1239.55 41.105 1238.83 40.935 1238.19 40.595C1237.56 40.255 1237.06 39.765 1236.69 39.125C1236.33 38.475 1236.15 37.72 1236.15 36.86C1236.15 36 1236.33 35.25 1236.69 34.61C1237.06 33.97 1237.56 33.48 1238.19 33.14C1238.83 32.8 1239.55 32.63 1240.35 32.63ZM1240.35 34.115C1239.91 34.115 1239.5 34.215 1239.13 34.415C1238.76 34.615 1238.46 34.925 1238.23 35.345C1238.01 35.755 1237.9 36.26 1237.9 36.86C1237.9 37.47 1238.01 37.98 1238.23 38.39C1238.46 38.8 1238.76 39.105 1239.13 39.305C1239.5 39.505 1239.91 39.605 1240.35 39.605C1240.79 39.605 1241.19 39.505 1241.56 39.305C1241.93 39.105 1242.23 38.8 1242.45 38.39C1242.68 37.98 1242.79 37.47 1242.79 36.86C1242.79 36.26 1242.68 35.755 1242.45 35.345C1242.23 34.925 1241.93 34.615 1241.56 34.415C1241.19 34.215 1240.79 34.115 1240.35 34.115ZM1250.81 32.6C1251.77 32.6 1252.54 32.91 1253.12 33.53C1253.7 34.15 1253.99 35.035 1253.99 36.185V41H1252.28V36.365C1252.28 35.625 1252.09 35.055 1251.71 34.655C1251.33 34.245 1250.81 34.04 1250.15 34.04C1249.47 34.04 1248.93 34.26 1248.52 34.7C1248.11 35.13 1247.9 35.765 1247.9 36.605V41H1246.19V32.735H1247.9V34.55C1248.12 33.93 1248.49 33.45 1249.01 33.11C1249.53 32.77 1250.13 32.6 1250.81 32.6ZM1260.15 39.515V41H1259.1C1258.22 41 1257.55 40.79 1257.09 40.37C1256.64 39.94 1256.41 39.23 1256.41 38.24V34.19H1255.23V32.735H1256.41V30.68H1258.14V32.735H1260.13V34.19H1258.14V38.27C1258.14 38.74 1258.22 39.065 1258.39 39.245C1258.57 39.425 1258.88 39.515 1259.32 39.515H1260.15ZM1265.06 32.63C1265.81 32.63 1266.45 32.815 1266.98 33.185C1267.51 33.555 1267.89 34.045 1268.11 34.655V32.735H1269.82V41H1268.11V39.08C1267.89 39.69 1267.51 40.18 1266.98 40.55C1266.45 40.92 1265.81 41.105 1265.06 41.105C1264.34 41.105 1263.7 40.935 1263.13 40.595C1262.57 40.255 1262.13 39.765 1261.81 39.125C1261.49 38.485 1261.33 37.73 1261.33 36.86C1261.33 36 1261.49 35.25 1261.81 34.61C1262.13 33.97 1262.57 33.48 1263.13 33.14C1263.7 32.8 1264.34 32.63 1265.06 32.63ZM1265.59 34.13C1264.83 34.13 1264.22 34.375 1263.76 34.865C1263.31 35.345 1263.08 36.01 1263.08 36.86C1263.08 37.71 1263.31 38.38 1263.76 38.87C1264.22 39.35 1264.83 39.59 1265.59 39.59C1266.07 39.59 1266.5 39.48 1266.88 39.26C1267.26 39.03 1267.56 38.71 1267.78 38.3C1268 37.89 1268.11 37.41 1268.11 36.86C1268.11 36.32 1268 35.845 1267.78 35.435C1267.56 35.015 1267.26 34.695 1266.88 34.475C1266.5 34.245 1266.07 34.13 1265.59 34.13ZM1275.54 32.63C1276.61 32.63 1277.5 32.915 1278.2 33.485C1278.9 34.045 1279.33 34.81 1279.5 35.78H1277.69C1277.59 35.26 1277.34 34.855 1276.95 34.565C1276.57 34.265 1276.09 34.115 1275.51 34.115C1274.85 34.115 1274.3 34.35 1273.86 34.82C1273.42 35.28 1273.2 35.96 1273.2 36.86C1273.2 37.76 1273.42 38.445 1273.86 38.915C1274.3 39.385 1274.85 39.62 1275.51 39.62C1276.09 39.62 1276.57 39.47 1276.95 39.17C1277.34 38.87 1277.59 38.46 1277.69 37.94H1279.5C1279.33 38.91 1278.9 39.68 1278.2 40.25C1277.5 40.82 1276.61 41.105 1275.54 41.105C1274.74 41.105 1274.03 40.935 1273.41 40.595C1272.8 40.255 1272.32 39.765 1271.97 39.125C1271.62 38.485 1271.45 37.73 1271.45 36.86C1271.45 36 1271.62 35.25 1271.97 34.61C1272.32 33.97 1272.8 33.48 1273.41 33.14C1274.03 32.8 1274.74 32.63 1275.54 32.63ZM1285.31 39.515V41H1284.26C1283.38 41 1282.71 40.79 1282.25 40.37C1281.8 39.94 1281.58 39.23 1281.58 38.24V34.19H1280.39V32.735H1281.58V30.68H1283.3V32.735H1285.3V34.19H1283.3V38.27C1283.3 38.74 1283.39 39.065 1283.56 39.245C1283.74 39.425 1284.05 39.515 1284.49 39.515H1285.31Z" fill="#344563"/>
</g>
<defs>
<clipPath id="clip0_34_1133">
<rect width="259" height="40" fill="white" transform="translate(1039 16)"/>
</clipPath>
</defs>
</svg>
